<svg width="44" height="44" viewBox="0 0 44 44" fill="none" xmlns="http://www.w3.org/2000/svg">
<g clip-path="url(#clip0_27_6)">
<path d="M22.0092 44.0183C34.1645 44.0183 44.0183 34.1645 44.0183 22.0092C44.0183 9.85384 34.1645 0 22.0092 0C9.85384 0 0 9.85384 0 22.0092C0 34.1645 9.85384 44.0183 22.0092 44.0183Z" fill="url(#paint0_linear_27_6)"/>
<path fill-rule="evenodd" clip-rule="evenodd" d="M9.95084 21.7709C16.3648 18.9854 20.6347 17.1345 22.7788 16.2366C28.8813 13.6893 30.1641 13.2495 30.9887 13.2311C31.172 13.2311 31.5752 13.2678 31.85 13.4877C32.07 13.671 32.1249 13.9092 32.1616 14.0924C32.1982 14.2757 32.2349 14.6605 32.1982 14.9538C31.8684 18.4356 30.439 26.8838 29.7059 30.7688C29.3944 32.4181 28.7897 32.9679 28.2032 33.0229C26.9204 33.1328 25.9492 32.1799 24.7214 31.3736C22.7788 30.1091 21.6976 29.3211 19.8101 28.075C17.6293 26.6456 19.0404 25.8575 20.2865 24.5747C20.6164 24.2449 26.2424 19.1137 26.3523 18.6555C26.3707 18.6006 26.3707 18.3807 26.2424 18.2707C26.1141 18.1608 25.9308 18.1974 25.7842 18.2341C25.5827 18.2707 22.5039 20.3232 16.5114 24.3732C15.6318 24.9779 14.8438 25.2711 14.1291 25.2528C13.3411 25.2345 11.8384 24.813 10.7022 24.4465C9.32777 24.0066 8.22823 23.7684 8.31985 22.9987C8.37483 22.5956 8.9246 22.1924 9.95084 21.7709Z" fill="white"/>
</g>
<defs>
<linearGradient id="paint0_linear_27_6" x1="21.9908" y1="0" x2="21.9908" y2="43.6701" gradientUnits="userSpaceOnUse">
<stop stop-color="#24292F"/>
<stop offset="1" stop-color="#24292F"/>
</linearGradient>
<clipPath id="clip0_27_6">
<rect width="44" height="44" fill="white"/>
</clipPath>
</defs>
</svg>
